<svg id="Capa_1" enable-background="new 0 0 385.018 385.018" height="512" viewBox="0 0 385.018 385.018" width="512" xmlns="http://www.w3.org/2000/svg"><g><path d="m295.72 84.692-30.368 283.004h-148.603l-30.368-283.004z" fill="#ebf0f3"/><path d="m267.342 350.369-2.01 17.346c0 9.569-25.997 17.303-74.278 17.303s-74.322-7.734-74.322-17.303l-1.966-17.346c0-1.311.524-2.621 1.529-3.845 6.292-7.733 32.071-13.501 74.759-13.501 42.601 0 68.38 5.768 74.715 13.458 1.049 1.223 1.573 2.534 1.573 3.888z" fill="#d5d6db"/><path d="m275.247 192.228-16.822 154.717-.393 3.408c0 8.476-23.463 15.336-66.982 15.336s-67.025-6.86-67.025-15.336l-.393-3.364-16.778-154.761z" fill="#fcd462"/><ellipse cx="191.051" cy="84.692" fill="#e1e6e9" rx="104.67" ry="20.748"/><path d="m191.05 98.555c-57.438 0-90.139-8.612-96.962-13.863 6.824-5.252 39.526-13.862 96.962-13.862 57.438 0 90.139 8.61 96.964 13.862-6.823 5.252-39.525 13.863-96.964 13.863z" fill="#ebf0f3"/><path d="m275.247 192.228c0 7.821-27.221 14.419-63.923 16.21-4.369.218-8.87.35-13.501.393-2.228.087-4.5.087-6.772.087-46.489 0-84.197-7.471-84.197-16.691 0-9.219 37.707-16.691 84.197-16.691 4.631 0 9.175.087 13.588.219 4.544.131 9.001.349 13.283.655 33.338 2.23 57.325 8.478 57.325 15.818z" fill="#f7be56"/><path d="m175.674 384.69c-9.831-.375-18.482-1.172-25.91-2.297l-4.981-49.917-23.245-232.293c7.733 1.453 16.516 2.718 26.041 3.609l22.633 225.965z" fill="#fff" opacity=".25"/><path d="m205.167 384.737c-4.457.188-9.175.281-14.113.281h-.83l-4.631-55.73-18.613-224.09c4.894.281 9.918.422 15.03.516l18.57 223.621z" fill="#fff" opacity=".25"/><path d="m197.471 275.584-12.839-2.645 50.33-244.192 57.842-28.747 5.833 11.738-52.124 25.904z" fill="#e56353" opacity=".75"/><path d="m214.645 192.228-17.172 83.366-12.845-2.665 16.647-80.701z" fill="#f7be56" opacity=".75"/><path d="m217.922 176.411-6.598 32.027c-4.369.218-8.87.35-13.501.393l6.816-33.076c4.544.132 9.001.35 13.283.656z" fill="#e56353" opacity=".75"/></g></svg>