<svg id="Capa_1" enable-background="new 0 0 512 512" height="512" viewBox="0 0 512 512" width="512" xmlns="http://www.w3.org/2000/svg"><g><g><g><path d="m313.333 245.069h25.756c48.178 0 87.234 39.056 87.234 87.234s-39.056 87.234-87.234 87.234h-37.089l-7 61.811h44.089c82.315 0 149.045-66.73 149.045-149.045s-66.73-149.045-149.045-149.045h-18.089z" fill="#899731"/></g><g><path d="m23.866 152.606 30.905 359.394h126.707l20-202-20-157.394z" fill="#cee446"/><path d="m339.089 152.606h-101.404l-15 10-15-10h-26.207v359.394h126.706z" fill="#b7ca3f"/></g><g><path d="m207.685 152.606h30v121.12h-30z" fill="#faf1e5"/></g><path d="m191.779 263.726h61.811v72.113h-61.811z" fill="#dd4e4e"/></g><g><path d="m104.667 30.905h30v75.343h-30z" fill="#ffe477"/></g><g><path d="m228.289 30.905h30v75.343h-30z" fill="#eec157"/></g><g><path d="m166.478 0v106.248h15l10-56.248-10-50z" fill="#ffe477"/><path d="m181.478 0h15v106.248h-15z" fill="#eec157"/></g></g></svg>